<?xml version="1.0" encoding="UTF-8"?>
<svg version="1.1" xmlns="http://www.w3.org/2000/svg" width="512" height="512">
<path d="M0 0 C0.77456543 -0.01853027 1.54913086 -0.03706055 2.34716797 -0.05615234 C13.14664236 0.05895177 21.52953273 4.56390783 29.875 11.0625 C30.6911377 11.68092773 31.50727539 12.29935547 32.34814453 12.93652344 C34.76543902 14.77542942 37.16648428 16.63348488 39.5625 18.5 C40.22781738 19.0161084 40.89313477 19.5322168 41.57861328 20.06396484 C44.49839337 22.33320415 47.40527573 24.61784838 50.30078125 26.91796875 C53.55093239 29.49848589 56.8325743 32.03623625 60.125 34.5625 C60.65786621 34.97145508 61.19073242 35.38041016 61.73974609 35.80175781 C62.81088334 36.62340758 63.88217222 37.44485973 64.95361328 38.26611328 C67.65899816 40.3409259 70.36052632 42.4207484 73.0625 44.5 C74.15102954 45.33725535 75.23957119 46.17449496 76.328125 47.01171875 C78.44321753 48.63866417 80.55769452 50.2663998 82.671875 51.89453125 C88.79353457 56.6076 94.92410412 61.30874598 101.0625 66 C108.24031092 71.48562442 115.40495047 76.98796751 122.5625 82.5 C124.72894651 84.16695292 126.89572497 85.83347413 129.0625 87.5 C130.14583938 88.33332547 131.22917272 89.1666588 132.3125 90 C132.84875 90.4125 133.385 90.825 133.9375 91.25 C138.8125 95 138.8125 95 140.43652344 96.24926758 C141.52308779 97.08507376 142.60967645 97.92084835 143.69628906 98.7565918 C146.35538548 100.80183636 149.0139994 102.84769991 151.671875 104.89453125 C157.79353457 109.6076 163.92410412 114.30874598 170.0625 119 C177.24031092 124.48562442 184.40495047 129.98796751 191.5625 135.5 C193.72894651 137.16695292 195.89572497 138.83347413 198.0625 140.5 C199.14583938 141.33332547 200.22917272 142.1666588 201.3125 143 C201.84875 143.4125 202.385 143.825 202.9375 144.25 C207.8125 148 207.8125 148 209.43652344 149.24926758 C210.52308779 150.08507376 211.60967645 150.92084835 212.69628906 151.7565918 C215.35538548 153.80183636 218.0139994 155.84769991 220.671875 157.89453125 C221.70828125 158.69246094 222.7446875 159.49039063 223.8125 160.3125 C224.33481201 160.71509033 224.85712402 161.11768066 225.39526367 161.5324707 C228.54685267 163.95898208 231.70858243 166.37144442 234.87890625 168.7734375 C235.62430664 169.33957764 236.36970703 169.90571777 237.13769531 170.48901367 C238.58182403 171.58534753 240.02766751 172.67942803 241.47558594 173.77075195 C249.94201458 180.20552088 256.68505605 185.89753223 261.5625 195.5 C261.8925 196.14710938 262.2225 196.79421875 262.5625 197.4609375 C267.02421069 207.62848974 266.37530482 219.80303618 262.62890625 230.0546875 C256.98821214 242.58522597 246.54128557 250.05491263 235.765625 257.87744141 C231.99359735 260.6554662 228.31250716 263.54877983 224.625 266.4375 C216.61864855 272.69090001 208.55824097 278.87057455 200.48193359 285.03320312 C197.670135 287.1819294 194.86615845 289.34066058 192.0625 291.5 C187.0704922 295.34384601 182.06853093 299.17443778 177.0625 303 C169.88466937 308.48559397 162.71969696 313.98751244 155.5625 319.5 C147.67336654 325.57622653 139.77241997 331.63653234 131.86035156 337.68286133 C127.58876667 340.94798403 123.32251126 344.21979133 119.0625 347.5 C114.0704922 351.34384601 109.06853093 355.17443778 104.0625 359 C96.88466937 364.48559397 89.71969696 369.98751244 82.5625 375.5 C74.67418222 381.57559829 66.77470019 387.63613516 58.86254883 393.68066406 C54.56649551 396.96369323 50.27989631 400.25844126 46 403.5625 C44.42948907 404.76800525 42.85895069 405.97347603 41.28710938 407.17724609 C40.04993498 408.12614344 38.81445308 409.07724901 37.58007812 410.02978516 C35.47515549 411.65163491 33.36324246 413.26401129 31.25 414.875 C30.28114868 415.62535522 30.28114868 415.62535522 29.29272461 416.39086914 C17.80915537 425.09731801 5.87824398 428.04427351 -8.4375 426.5 C-19.86709643 423.97642351 -28.15010533 417.42803861 -34.875 408 C-41.84800337 396.6540962 -41.58652255 384.33183467 -41.57121277 371.40092468 C-41.57308343 369.97865276 -41.57538515 368.55638135 -41.57807809 367.13411075 C-41.58417083 363.24406337 -41.58406549 359.35403757 -41.58288372 355.46398652 C-41.58267907 351.26141858 -41.58820451 347.05885746 -41.59294128 342.85629272 C-41.60123431 334.62980822 -41.60399551 326.40333087 -41.60455366 318.17684253 C-41.60502942 311.48808556 -41.60708716 304.79933095 -41.61025429 298.11057472 C-41.61905685 279.13308752 -41.62367424 260.15560596 -41.62292381 241.1781167 C-41.62288386 240.15584454 -41.6228439 239.13357237 -41.62280273 238.08032227 C-41.62276185 237.05679741 -41.62272097 236.03327255 -41.62267885 234.97873179 C-41.6222724 218.39106084 -41.63184283 201.80341259 -41.6459411 185.21574821 C-41.66031379 168.17029668 -41.66721081 151.1248562 -41.66634732 134.07939845 C-41.66601569 124.51501145 -41.66874836 114.95064825 -41.67952538 105.38626671 C-41.68864207 97.2434405 -41.69079598 89.10064889 -41.68401595 80.95781978 C-41.68075678 76.80647514 -41.68067225 72.65519685 -41.6893692 68.50385857 C-41.69726174 64.69722931 -41.69577485 60.8907187 -41.68708507 57.08409224 C-41.68483663 55.06830506 -41.692357 53.05251412 -41.70032471 51.03674144 C-41.6472171 36.94667745 -39.77832173 24.66276231 -31.125 13.125 C-27.53537505 9.6188547 -23.78009667 6.99751925 -19.4375 4.5 C-18.73238281 4.08234375 -18.02726562 3.6646875 -17.30078125 3.234375 C-11.66150221 0.43933966 -6.18769949 0.09079974 0 0 Z " fill="#000000" transform="translate(82.4375,42.5)"/>
<path d="M0 0 C7.85321971 6.75742161 10.81014075 13.89654164 12 24 C12.26821656 29.09894082 12.27087259 34.19102257 12.25396729 39.29541016 C12.25627544 40.82324179 12.25945434 42.3510723 12.26342177 43.87890053 C12.27172964 48.05142382 12.26766283 52.223855 12.26144934 56.39637852 C12.25690937 60.90632802 12.26391625 65.41626209 12.26940918 69.9262085 C12.27828836 78.75100608 12.27638774 87.57576958 12.2705839 96.40056849 C12.26606161 103.57460465 12.26545696 110.74863128 12.26763153 117.92266846 C12.267938 118.94488577 12.26824446 119.96710309 12.26856022 121.02029669 C12.26919969 123.09710678 12.26984811 125.17391686 12.2705054 127.25072694 C12.27620437 146.71121209 12.26965759 166.17167837 12.25890467 185.63216043 C12.24996955 202.31923619 12.25152171 219.00628412 12.26074219 235.69335938 C12.27145246 255.08564652 12.27565509 274.47791714 12.26951766 293.87020683 C12.26888058 295.9392484 12.26825184 298.00828997 12.26763153 300.07733154 C12.2671687 301.60422369 12.2671687 301.60422369 12.26669653 303.16196215 C12.26497186 310.32487741 12.26787977 317.48778217 12.27259064 324.6506958 C12.27820787 333.38346147 12.27666529 342.1161912 12.26602915 350.84895277 C12.2607838 355.301948 12.2586963 359.75488337 12.26532745 364.20787811 C12.27131258 368.28885594 12.26796972 372.36971874 12.25737235 376.45068622 C12.25514915 377.92227845 12.25625016 379.39388052 12.26112393 380.86546636 C12.30277589 394.49355511 11.78105204 405.1193179 2.6875 415.6875 C-7.45075763 424.41111703 -17.02756956 425.14886129 -30.0625 425.25 C-30.98434082 425.25942627 -31.90618164 425.26885254 -32.85595703 425.27856445 C-44.01561032 425.22589645 -54.35802895 423.57181591 -62.75 415.75 C-68.46795194 409.69262626 -71.12147261 402.9305461 -71.13422108 394.65892601 C-71.13657331 394.00982535 -71.13892554 393.36072469 -71.14134905 392.69195431 C-71.14804264 390.5018441 -71.14758072 388.31179317 -71.14717102 386.12167358 C-71.15046943 384.54157439 -71.15419495 382.96147604 -71.1583125 381.38137877 C-71.16834335 377.02732673 -71.17205104 372.67328847 -71.17470181 368.3192265 C-71.17860167 363.62785075 -71.18818025 358.93648596 -71.19691467 354.24511719 C-71.21668853 342.90918651 -71.22674665 331.57325492 -71.23564246 320.2373113 C-71.24002403 314.90084839 -71.24539119 309.56438647 -71.25063133 304.22792435 C-71.26764485 286.49120731 -71.28213928 268.7544909 -71.28938007 251.01776695 C-71.29129001 246.4137001 -71.29321034 241.80963324 -71.29516602 237.20556641 C-71.29564976 236.06122763 -71.2961335 234.91688886 -71.2966319 233.73787315 C-71.30493313 215.1981152 -71.33027109 196.65842175 -71.36274669 178.11869197 C-71.39580692 159.09027342 -71.41382792 140.06188766 -71.41702431 121.03344023 C-71.41919042 110.34728918 -71.42795369 99.66123218 -71.45348549 88.9751091 C-71.47517835 79.8746324 -71.48324987 70.77427259 -71.47351871 61.67377298 C-71.46896986 57.03063481 -71.4708942 52.38773789 -71.49028015 47.74463272 C-71.50788293 43.4918718 -71.50693763 39.23952862 -71.49138286 34.98676343 C-71.48900239 33.45035891 -71.49335314 31.91392568 -71.50521151 30.37756507 C-71.59041555 18.60709249 -69.95717138 10.47872005 -61.79296875 1.72265625 C-48.11872886 -11.41533894 -14.65274921 -11.53442959 0 0 Z " fill="#000000" transform="translate(460,47)"/>
</svg>
