<?xml version="1.0" encoding="UTF-8"?>
<svg version="1.1" xmlns="http://www.w3.org/2000/svg" width="512" height="512">
<path d="M0 0 C1.1240625 -0.06316406 2.248125 -0.12632813 3.40625 -0.19140625 C14.75476682 0.95606764 27.07904896 12.56820038 36.26318359 18.82397461 C41.0334377 22.07208787 45.81313512 25.30622441 50.59375 28.5390625 C51.58044678 29.2063739 52.56714355 29.8736853 53.58374023 30.56121826 C63.83261533 37.48119355 74.1614606 44.27754439 84.5 51.0625 C99.97075741 61.21973174 115.35195258 71.49975114 130.67724609 81.875 C144.2189215 91.03939364 157.83225199 100.08733136 171.5 109.0625 C188.02836108 119.91725518 204.47067107 130.89153014 220.83447266 141.99291992 C229.51848844 147.88025987 238.22924257 153.71575587 247.0234375 159.4375 C249.51455427 161.06640484 252.00509358 162.69618983 254.49560547 164.32601929 C256.80595415 165.8300513 259.12715871 167.31614195 261.44921875 168.80200195 C262.84953405 169.71738162 264.24930587 170.63359341 265.6484375 171.55078125 C266.27342133 171.9422937 266.89840515 172.33380615 267.54232788 172.73718262 C272.65037415 176.13014228 276.29715618 180.64560724 278.11776733 186.57417297 C279.36106819 193.04167016 278.59478703 198.77709588 275.5 204.5625 C272.14701715 209.50045167 267.93073778 212.21022126 262.99609375 215.375 C262.14269913 215.93231812 261.2893045 216.48963623 260.41004944 217.06384277 C258.56098011 218.27045109 256.70952045 219.47340255 254.85595703 220.6730957 C249.83922875 223.92091737 244.84060437 227.1964181 239.83984375 230.46875 C238.80914764 231.14224487 237.77845154 231.81573975 236.71652222 232.50964355 C226.40647493 239.25598414 216.19828781 246.14888649 206 253.0625 C190.65736033 263.45328985 175.22892919 273.70414424 159.73974609 283.875 C146.09247155 292.83955196 132.52123268 301.90905137 119 311.0625 C102.74590946 322.06457036 86.40245341 332.92198332 69.99804688 343.69848633 C60.48903863 349.9469963 50.99638636 356.21837589 41.53515625 362.5390625 C40.56110336 363.18969162 39.58705048 363.84032074 38.58348083 364.51066589 C33.90206883 367.63894837 29.22305308 370.77075799 24.54663086 373.90649414 C22.87486555 375.02494467 21.20307343 376.14335511 19.53125 377.26171875 C18.7730043 377.77171417 18.01475861 378.28170959 17.23353577 378.80715942 C16.18304298 379.5091597 16.18304298 379.5091597 15.11132812 380.2253418 C14.5067981 380.63084763 13.90226807 381.03635345 13.27941895 381.45414734 C6.90688302 385.42343022 0.90261932 385.36659191 -6.5 384.5625 C-12.20974924 382.49990841 -16.09747409 378.46614028 -19.5 373.5625 C-21.16673735 369.37569939 -21.75127607 365.87544296 -21.75726891 361.38327312 C-21.7637178 360.15768867 -21.77016669 358.93210422 -21.776811 357.66938084 C-21.77386903 356.31764732 -21.77073362 354.9659142 -21.76742554 353.61418152 C-21.77116338 352.17173488 -21.77576543 350.72929026 -21.78115618 349.28684884 C-21.79338507 345.32720635 -21.79312585 341.36764836 -21.79076743 337.40799129 C-21.79035924 333.13588782 -21.80139864 328.86381143 -21.81088257 324.59172058 C-21.82749282 316.22345281 -21.83299212 307.85521321 -21.83410732 299.48693033 C-21.83505777 292.68460976 -21.83916786 285.88229848 -21.84550858 279.07998085 C-21.86312088 259.79288105 -21.87234744 240.5058035 -21.87084763 221.2186956 C-21.87076772 220.17900408 -21.8706878 219.13931256 -21.87060547 218.06811523 C-21.87052371 217.02715387 -21.87044195 215.9861925 -21.87035771 214.91368685 C-21.86954476 198.04247597 -21.88868463 181.17135437 -21.9168822 164.30016931 C-21.94560882 146.97570942 -21.95942263 129.65129307 -21.95769465 112.32680875 C-21.95703068 102.60091813 -21.96252597 92.8751211 -21.98405075 83.14925194 C-22.00225959 74.8686285 -22.00661231 66.58814107 -21.9930319 58.30750629 C-21.98650081 54.08357358 -21.98639007 49.85990185 -22.0037384 45.63599396 C-22.01946803 41.76636832 -22.01660692 37.8972106 -21.99917014 34.02759639 C-21.99609998 32.63058373 -21.99973332 31.23353616 -22.01089029 29.83656468 C-22.07481992 21.26137059 -21.92283168 13.21511425 -15.72068155 6.69073933 C-10.7736715 2.18919271 -6.77508764 0.2365177 0 0 Z M22.5 63.5625 C22.5 148.7025 22.5 233.8425 22.5 321.5625 C26.00424302 320.16080279 28.33817606 319.16668992 31.31665039 317.13354492 C32.0369191 316.64552902 32.75718781 316.15751312 33.49928284 315.65470886 C34.27424606 315.12283463 35.04920929 314.59096039 35.84765625 314.04296875 C37.08823036 313.20062431 37.08823036 313.20062431 38.35386658 312.34126282 C40.14891374 311.12216172 41.94260943 309.90106883 43.73510742 308.67822266 C48.59839436 305.36156259 53.47281729 302.06136725 58.34765625 298.76171875 C59.86016464 297.73756363 59.86016464 297.73756363 61.40322876 296.69271851 C71.709354 289.72517841 82.09883999 282.88698898 92.5 276.0625 C107.06991435 266.49729956 121.56725729 256.83342524 136 247.0625 C153.69459589 235.08352521 171.49804733 223.27731675 189.35864258 211.54745483 C191.85019515 209.91037854 194.34021548 208.27099263 196.83007812 206.63134766 C199.90990048 204.60375803 202.9976988 202.58922341 206.09179688 200.58349609 C207.48316392 199.6742929 208.87444516 198.76495837 210.265625 197.85546875 C210.9034491 197.44629715 211.54127319 197.03712555 212.19842529 196.61555481 C213.66787602 195.64997382 215.09014836 194.61319046 216.5 193.5625 C216.5 192.9025 216.5 192.2425 216.5 191.5625 C215.06776043 190.32833938 215.06776043 190.32833938 213.14331055 189.13354492 C212.39945602 188.64552902 211.6556015 188.15751312 210.88920593 187.65470886 C210.06338516 187.12283463 209.23756439 186.59096039 208.38671875 186.04296875 C207.52766434 185.48140579 206.66860992 184.91984283 205.78352356 184.34126282 C203.91015332 183.11733733 202.03478786 181.89646178 200.15771484 180.67822266 C195.08889253 177.38761287 190.03524187 174.07385317 184.98046875 170.76171875 C183.9374057 170.07894867 182.89434265 169.39617859 181.81967163 168.69271851 C171.47940015 161.91448134 161.23423243 154.99935284 151 148.0625 C136.5687387 138.28937312 122.06891245 128.62917263 107.5 119.0625 C89.77399279 107.42237577 72.15952466 95.62491683 54.59844971 83.73757935 C51.37430846 81.55591282 48.14832348 79.37698534 44.92175293 77.19891357 C43.25547414 76.07298483 41.59024976 74.94549459 39.92590332 73.81671143 C37.41447253 72.114304 34.89910131 70.41787206 32.3828125 68.72265625 C31.61750214 68.20199081 30.85219177 67.68132538 30.06369019 67.1448822 C29.36091949 66.67305008 28.6581488 66.20121796 27.93408203 65.71508789 C27.31695343 65.29787979 26.69982483 64.88067169 26.06399536 64.45082092 C24.50993374 63.39787402 24.50993374 63.39787402 22.5 63.5625 Z " fill="#000000" transform="translate(95.5,63.4375)"/>
<path d="M0 0 C5.06159168 5.06159168 7.37029464 10.73231894 7.38142776 17.84283066 C7.38526891 18.76547769 7.38911005 19.68812473 7.3930676 20.63873076 C7.39220112 21.64883279 7.39133463 22.65893482 7.39044189 23.699646 C7.39341302 24.77547699 7.39638414 25.85130799 7.3994453 26.95973992 C7.40814058 30.57700891 7.40964125 34.19424482 7.41113281 37.81152344 C7.41576039 40.40008617 7.42078496 42.98864822 7.42617798 45.57720947 C7.43975514 52.61860578 7.44578507 59.6599964 7.45018864 66.70140362 C7.45295213 71.09895384 7.45718969 75.49650186 7.46169281 79.8940506 C7.47388473 92.07203407 7.48418416 104.25001578 7.4875679 116.42800522 C7.48789725 117.5969498 7.48789725 117.5969498 7.48823325 118.78950943 C7.48856067 119.96123472 7.48856067 119.96123472 7.4888947 121.15663123 C7.48933817 122.73951197 7.48978473 124.3223927 7.49023438 125.90527344 C7.4904558 126.69043525 7.49067723 127.47559706 7.49090537 128.28455165 C7.49485282 141.00504337 7.51230554 153.72547779 7.5355939 166.44594738 C7.55931631 179.50905828 7.57177016 192.57214043 7.57293582 205.63527322 C7.57385209 212.96844622 7.57959219 220.30154455 7.59775543 227.63469696 C7.61478057 234.53261797 7.61640237 241.43039512 7.60761642 248.32833099 C7.60684486 250.859918 7.61120436 253.39151256 7.62107468 255.92308044 C7.63376114 259.37969618 7.62793479 262.83580729 7.61749268 266.29241943 C7.62554908 267.29359857 7.63360548 268.29477771 7.64190602 269.32629561 C7.59113955 276.51449035 6.71571123 282.31780286 1.9375 288 C-4.26427746 293.19218578 -8.47955831 295.58969001 -16.59765625 295.46875 C-22.45103207 294.87385155 -27.59930808 292.40069192 -31.75 288.25 C-35.24038335 283.20309435 -36.87188609 278.75125335 -36.88142776 272.65716934 C-36.88526891 271.73452231 -36.88911005 270.81187527 -36.8930676 269.86126924 C-36.89220112 268.85116721 -36.89133463 267.84106518 -36.89044189 266.800354 C-36.89341302 265.72452301 -36.89638414 264.64869201 -36.8994453 263.54026008 C-36.90814058 259.92299109 -36.90964125 256.30575518 -36.91113281 252.68847656 C-36.91576039 250.09991383 -36.92078496 247.51135178 -36.92617798 244.92279053 C-36.93975514 237.88139422 -36.94578507 230.8400036 -36.95018864 223.79859638 C-36.95295213 219.40104616 -36.95718969 215.00349814 -36.96169281 210.6059494 C-36.97388473 198.42796593 -36.98418416 186.24998422 -36.9875679 174.07199478 C-36.98778747 173.29269839 -36.98800703 172.513402 -36.98823325 171.71049057 C-36.98845153 170.92934038 -36.98866981 170.14819018 -36.9888947 169.34336877 C-36.98933817 167.76048803 -36.98978473 166.1776073 -36.99023438 164.59472656 C-36.9904558 163.80956475 -36.99067723 163.02440294 -36.99090537 162.21544835 C-36.99485282 149.49495663 -37.01230554 136.77452221 -37.0355939 124.05405262 C-37.05931631 110.99094172 -37.07177016 97.92785957 -37.07293582 84.86472678 C-37.07385209 77.53155378 -37.07959219 70.19845545 -37.09775543 62.86530304 C-37.11478057 55.96738203 -37.11640237 49.06960488 -37.10761642 42.17166901 C-37.10684486 39.640082 -37.11120436 37.10848744 -37.12107468 34.57691956 C-37.13376114 31.12030382 -37.12793479 27.66419271 -37.11749268 24.20758057 C-37.12554908 23.20640143 -37.13360548 22.20522229 -37.14190602 21.17370439 C-37.08507316 13.12655015 -35.66471136 6.16471136 -29.75 0.25 C-19.91568315 -6.55130324 -9.93984913 -6.32535854 0 0 Z " fill="#000000" transform="translate(430.75,110.75)"/>
</svg>
