<?xml version="1.0" encoding="UTF-8"?>
<svg version="1.1" xmlns="http://www.w3.org/2000/svg" width="512" height="512">
<path d="M0 0 C1.28244342 0.67797808 2.56541114 1.35496524 3.84887695 2.03100586 C7.6179829 4.02234055 11.37343356 6.03835383 15.125 8.0625 C16.1351416 8.60680664 17.1452832 9.15111328 18.18603516 9.71191406 C22.67423483 12.13784112 27.15112675 14.58362713 31.62109375 17.04296875 C37.68588583 20.37810989 43.77905372 23.65973463 49.875 26.9375 C50.96031006 27.52136475 52.04562012 28.10522949 53.16381836 28.70678711 C56.48393439 30.49254206 59.80440681 32.2776325 63.125 34.0625 C76.3226009 41.15640388 89.51218096 48.26272744 102.65722656 55.45361328 C110.72499612 59.85963302 118.82900383 64.19721567 126.93597412 68.53048706 C135.56730531 73.14490145 144.17284158 77.80382573 152.7578125 82.50390625 C160.19036173 86.5668887 167.65465965 90.56959301 175.125 94.5625 C184.36039275 99.49882987 193.57240988 104.47510274 202.7578125 109.50390625 C210.19036173 113.5668887 217.65465965 117.56959301 225.125 121.5625 C234.35258576 126.49465702 243.55930739 131.46227604 252.73364258 136.49291992 C257.91271357 139.32741469 263.10968248 142.12586303 268.32421875 144.89453125 C269.57878035 145.56184086 270.83333764 146.22915857 272.08789062 146.89648438 C274.49680452 148.17750176 276.90854904 149.45260626 279.32226562 150.72460938 C296.01786185 159.59867122 308.97236385 167.68107892 315.5 186.1875 C319.49785185 200.46554234 317.56642742 214.52434233 310.3125 227.4375 C301.5422762 240.89675434 286.71601752 247.44770856 272.87255859 254.67199707 C269.10920543 256.63629922 265.35395622 258.61600365 261.59765625 260.59375 C260.85871124 260.98234192 260.11976624 261.37093384 259.35842896 261.77130127 C253.41792208 264.89847957 247.51065532 268.08318276 241.625 271.3125 C233.8921848 275.55324101 226.14198317 279.75961284 218.375 283.9375 C217.28928711 284.52160645 216.20357422 285.10571289 215.08496094 285.70751953 C210.65470253 288.09027305 206.22382141 290.47186739 201.79296875 292.85351562 C190.59586365 298.87311091 179.40293758 304.89887997 168.25 311 C159.29945941 315.89631741 150.31152186 320.72121917 141.31402588 325.53048706 C133.56517504 329.67311675 125.83226999 333.84294121 118.125 338.0625 C109.2167161 342.93958718 100.27017219 347.74339583 91.31347656 352.53076172 C83.56481017 356.67330187 75.83209024 360.84303962 68.125 365.0625 C59.21909659 369.93828391 50.27537017 374.74164905 41.32052612 379.5267334 C34.33010129 383.26271459 27.35103729 387.01769987 20.39990234 390.82641602 C16.86228331 392.76462367 13.31909803 394.69250225 9.77490234 396.61865234 C7.96057387 397.60722233 6.14850189 398.59994183 4.33837891 399.59619141 C-12.61551444 408.90864521 -27.34090871 415.58020658 -46.92578125 410.1015625 C-59.99762053 405.49611979 -69.60323413 397.42683843 -75.875 385.0625 C-79.7881072 376.53744802 -80.44645989 368.98126834 -80.38293457 359.67822266 C-80.3875519 358.2493813 -80.39391037 356.8205447 -80.40184355 355.39171791 C-80.41844609 351.49273173 -80.41033228 347.5941403 -80.39789867 343.69515324 C-80.38881304 339.47966484 -80.40283526 335.26424223 -80.41381836 331.04876709 C-80.43157081 322.8014569 -80.42777823 314.55429262 -80.4161678 306.3069768 C-80.40712083 299.60203896 -80.40591493 292.8971419 -80.41026306 286.19219971 C-80.41087599 285.23659106 -80.41148893 284.28098241 -80.41212043 283.29641593 C-80.41339938 281.35489383 -80.41469623 279.41337175 -80.4160108 277.47184968 C-80.427407 259.28178349 -80.41431795 241.09179803 -80.39280933 222.90174508 C-80.37493923 207.30620109 -80.3780436 191.71077621 -80.39648438 176.11523438 C-80.41790804 157.98863706 -80.42630846 139.86211045 -80.41403532 121.73550224 C-80.41276117 119.80126827 -80.41150369 117.86703429 -80.41026306 115.93280029 C-80.40964596 114.98121084 -80.40902886 114.02962138 -80.40839306 113.04919589 C-80.40494465 106.35514729 -80.41075752 99.66114368 -80.42018127 92.96710205 C-80.43141926 84.80521833 -80.42832342 76.64348841 -80.4070583 68.48162222 C-80.39657206 64.32019941 -80.39238442 60.15903271 -80.40565491 55.997612 C-80.41763528 52.1829582 -80.41092431 48.36879621 -80.3897447 44.55418658 C-80.3832093 42.53179339 -80.39616408 40.50936565 -80.40997362 38.48700905 C-80.29611752 25.1664242 -75.90740276 14.15371396 -67.13671875 4.0625 C-47.33352662 -14.9349948 -22.40796879 -12.05803464 0 0 Z M-42.875 27.0625 C-47.19431283 32.34304719 -47.9979944 38.0994912 -48.00642776 44.71262741 C-48.01026891 45.84565253 -48.01411005 46.97867765 -48.0180676 48.14603686 C-48.01720112 49.38600083 -48.01633463 50.62596479 -48.01544189 51.90350342 C-48.0180267 53.23784065 -48.02104019 54.57217711 -48.0244453 55.9065125 C-48.03250489 59.57195405 -48.03430429 63.237376 -48.03504276 66.90282536 C-48.03689512 70.85659878 -48.04444334 74.81036208 -48.05117798 78.76412964 C-48.06475414 87.40878886 -48.07078482 96.05344343 -48.07518864 104.69811153 C-48.07795211 110.09654526 -48.08218964 115.49497721 -48.08669281 120.89340973 C-48.09888423 135.84224205 -48.109184 150.79107294 -48.1125679 165.73991013 C-48.11278747 166.69647651 -48.11300703 167.65304289 -48.11323325 168.63859613 C-48.11345153 169.59743965 -48.11366981 170.55628316 -48.1138947 171.54418254 C-48.11433817 173.48713732 -48.11478473 175.4300921 -48.11523438 177.37304688 C-48.1154558 178.33681776 -48.11567723 179.30058864 -48.11590537 180.29356471 C-48.11985345 195.91031622 -48.13730834 211.52702108 -48.1605939 227.14375457 C-48.1843118 243.17996416 -48.19676994 259.21615034 -48.19793582 275.25237775 C-48.1988523 284.25503662 -48.20459788 293.25763468 -48.22275543 302.26027679 C-48.23816229 309.9260622 -48.2432734 317.591768 -48.23501733 325.25756595 C-48.23111298 329.16754015 -48.23202986 333.07735407 -48.24607468 336.9873085 C-48.25882641 340.57009232 -48.2576051 344.15259563 -48.24548396 347.73537913 C-48.24260654 349.63826048 -48.25445309 351.54114674 -48.26690602 353.44398952 C-48.2204025 361.51318488 -47.70544758 368.56168326 -42.5 375 C-38.44468508 378.18631887 -35.80214079 379.29778798 -30.67456055 378.82739258 C-25.96932433 378.24791949 -22.43764537 376.74258566 -18.33203125 374.44921875 C-17.64989059 374.08373428 -16.96774994 373.71824982 -16.26493835 373.34169006 C-14.06459344 372.15838695 -11.8762364 370.95461725 -9.6875 369.75 C-8.15434792 368.9202509 -6.62048677 368.09181069 -5.0859375 367.26464844 C-1.33699273 365.23959599 2.40280713 363.19837162 6.13909912 361.15008545 C8.8661478 359.65660786 11.59896348 358.17383401 14.33203125 356.69140625 C17.82197723 354.79545468 21.30721922 352.89125646 24.7890625 350.98046875 C30.84193185 347.66287764 36.9205109 344.39348488 43 341.125 C51.38237964 336.61768037 59.75860366 332.09942195 68.125 327.5625 C77.54507453 322.45471589 86.97736119 317.36995888 96.4140625 312.29296875 C103.65749188 308.39465532 110.89376969 304.48339137 118.125 300.5625 C127.5451021 295.45476654 136.97736101 290.36995898 146.4140625 285.29296875 C153.65749188 281.39465532 160.89376969 277.48339137 168.125 273.5625 C177.5451021 268.45476654 186.97736101 263.36995898 196.4140625 258.29296875 C204.64557347 253.86288349 212.86747934 249.41533075 221.08374023 244.95703125 C226.24818799 242.15631966 231.41812546 239.36648164 236.59765625 236.59375 C243.11744605 233.1029036 249.62641075 229.59265838 256.125 226.0625 C257.76782959 225.17087158 257.76782959 225.17087158 259.44384766 224.26123047 C262.63650965 222.5203377 265.819589 220.76315569 269 219 C269.96301025 218.47599609 270.92602051 217.95199219 271.91821289 217.41210938 C277.64608504 214.20802422 281.95810664 211.56318008 284.125 205.0625 C284.56092858 199.83135699 284.46219411 196.20572204 281.49365234 191.63183594 C276.23223635 185.59894582 266.932856 182.19232082 260 178.5 C257.6637874 177.24920752 255.32783936 175.99793187 252.9921875 174.74609375 C251.83170898 174.12460449 250.67123047 173.50311523 249.47558594 172.86279297 C244.6793845 170.28576081 239.90111352 167.67651963 235.125 165.0625 C223.92672621 158.94051829 212.68924724 152.89219297 201.44824219 146.84912109 C186.67487409 138.9067535 171.90859215 130.95167441 157.16357422 122.95678711 C149.82439935 118.97894229 142.47644684 115.01761332 135.125 111.0625 C125.79592448 106.04341305 116.47671994 101.00650646 107.1640625 95.95703125 C99.82470657 91.97913886 92.47660702 88.0176995 85.125 84.0625 C75.79592448 79.04341305 66.47671994 74.00650646 57.1640625 68.95703125 C49.82470646 64.9791388 42.47658977 61.01773171 35.125 57.0625 C27.73889323 53.08836391 20.35504616 49.11020784 12.98071289 45.11425781 C11.00695136 44.04533233 9.03219122 42.97824856 7.05639648 41.91308594 C1.87973683 39.11841974 -3.27064129 36.28495024 -8.39453125 33.39453125 C-10.00593994 32.49553101 -10.00593994 32.49553101 -11.64990234 31.57836914 C-13.69757749 30.43502853 -15.73877662 29.27997882 -17.77197266 28.11108398 C-26.30695318 23.37328982 -34.55459426 20.45511897 -42.875 27.0625 Z " fill="#000000" transform="translate(95.875,54.9375)"/>
<path d="M0 0 C4.97536876 2.30999264 7.31725074 5.28060006 10 10 C10.50139666 13.38004303 10.50139666 13.38004303 10.50336456 17.15588379 C10.51208521 18.20698696 10.51208521 18.20698696 10.52098203 19.27932453 C10.53557969 21.6273227 10.5216988 23.97427509 10.50793457 26.32226562 C10.5125436 28.02259099 10.51889653 29.72291237 10.52684355 31.4232254 C10.54355978 36.09564236 10.53528008 40.767733 10.52289867 45.44015121 C10.5138599 50.47908502 10.52781209 55.51796216 10.53881836 60.55688477 C10.55662069 70.42814713 10.55275595 80.29928795 10.5411678 90.17055511 C10.5321405 98.19191995 10.53090643 106.21325068 10.53526306 114.23461914 C10.53587599 115.37552269 10.53648893 116.51642625 10.53712043 117.69190264 C10.53839931 120.00950306 10.53969616 122.32710347 10.5410108 124.64470387 C10.55242162 146.38553661 10.539295 168.12630192 10.51780933 189.8671236 C10.49993791 208.52863701 10.50304187 227.19005089 10.52148438 245.8515625 C10.5428822 267.51369618 10.55132293 289.17577074 10.53903532 310.83791351 C10.5377611 313.14706929 10.53650362 315.45622507 10.53526306 317.76538086 C10.53464596 318.90158009 10.53402886 320.03777932 10.53339306 321.20840883 C10.5299369 329.22171731 10.53577424 337.23498834 10.54518127 345.24829102 C10.55639055 355.01158346 10.55338375 364.77474723 10.5320583 374.5380249 C10.52153348 379.52103763 10.51745046 384.5038357 10.53065491 389.48684692 C10.54255495 394.0465141 10.53605575 398.6057672 10.5147447 403.16539669 C10.51026849 404.81672219 10.51256769 406.46808252 10.52224785 408.11938572 C10.53438519 410.36146221 10.52196569 412.60211442 10.50336456 414.84411621 C10.50271515 416.09014366 10.50206574 417.33617111 10.50139666 418.61995697 C9.73492425 423.78694339 7.21845779 426.8424651 3.5 430.375 C-1.66500009 432.77303575 -6.4002288 432.75381535 -12 432 C-16.97536876 429.69000736 -19.31725074 426.71939994 -22 422 C-22.50139666 418.61995697 -22.50139666 418.61995697 -22.50336456 414.84411621 C-22.50917833 414.14338077 -22.51499209 413.44264532 -22.52098203 412.72067547 C-22.53557969 410.3726773 -22.5216988 408.02572491 -22.50793457 405.67773438 C-22.5125436 403.97740901 -22.51889653 402.27708763 -22.52684355 400.5767746 C-22.54355978 395.90435764 -22.53528008 391.232267 -22.52289867 386.55984879 C-22.5138599 381.52091498 -22.52781209 376.48203784 -22.53881836 371.44311523 C-22.55662069 361.57185287 -22.55275595 351.70071205 -22.5411678 341.82944489 C-22.5321405 333.80808005 -22.53090643 325.78674932 -22.53526306 317.76538086 C-22.53587599 316.62447731 -22.53648893 315.48357375 -22.53712043 314.30809736 C-22.53839931 311.99049694 -22.53969616 309.67289653 -22.5410108 307.35529613 C-22.55242162 285.61446339 -22.539295 263.87369808 -22.51780933 242.1328764 C-22.49993791 223.47136299 -22.50304187 204.80994911 -22.52148438 186.1484375 C-22.5428822 164.48630382 -22.55132293 142.82422926 -22.53903532 121.16208649 C-22.5377611 118.85293071 -22.53650362 116.54377493 -22.53526306 114.23461914 C-22.53464596 113.09841991 -22.53402886 111.96222068 -22.53339306 110.79159117 C-22.5299369 102.77828269 -22.53577424 94.76501166 -22.54518127 86.75170898 C-22.55639055 76.98841654 -22.55338375 67.22525277 -22.5320583 57.4619751 C-22.52153348 52.47896237 -22.51745046 47.4961643 -22.53065491 42.51315308 C-22.54255495 37.9534859 -22.53605575 33.3942328 -22.5147447 28.83460331 C-22.51026849 27.18327781 -22.51256769 25.53191748 -22.52224785 23.88061428 C-22.53438519 21.63853779 -22.52196569 19.39788558 -22.50336456 17.15588379 C-22.50271515 15.90985634 -22.50206574 14.66382889 -22.50139666 13.38004303 C-21.73492425 8.21305661 -19.21845779 5.1575349 -15.5 1.625 C-10.33499991 -0.77303575 -5.5997712 -0.75381535 0 0 Z " fill="#000000" transform="translate(486,40)"/>
</svg>
