<?xml version="1.0" encoding="UTF-8"?>
<svg version="1.1" xmlns="http://www.w3.org/2000/svg" width="512" height="512">
<path d="M0 0 C1.21913086 -0.0299707 1.21913086 -0.0299707 2.46289062 -0.06054688 C15.69268732 -0.05018681 26.26050948 6.42951426 37.1875 13.125 C38.60093273 13.97890787 40.0150075 14.83175383 41.4296875 15.68359375 C45.01280792 17.84499796 48.5874772 20.01992481 52.15917969 22.20013428 C55.22795974 24.07222678 58.30155151 25.93636678 61.375 27.80078125 C64.78677596 29.87128674 68.1977064 31.94315774 71.60546875 34.02026367 C80.42661486 39.393287 89.29904138 44.6767233 98.1875 49.9375 C108.79880098 56.21796857 119.36849227 62.560425 129.89648438 68.97949219 C139.28592559 74.70201936 148.72488361 80.33689881 158.1875 85.9375 C168.79880098 92.21796857 179.36849227 98.560425 189.89648438 104.97949219 C199.28592559 110.70201936 208.72488361 116.33689881 218.1875 121.9375 C228.79880098 128.21796857 239.36849227 134.560425 249.89648438 140.97949219 C259.28592764 146.70202061 268.72496233 152.33676307 278.1875 157.9375 C289.52391749 164.64794341 300.82095414 171.41799722 312.06201172 178.28710938 C317.72662803 181.74470057 323.40731053 185.16692517 329.13671875 188.515625 C330.25957275 189.17594727 331.38242676 189.83626953 332.53930664 190.51660156 C334.63574768 191.74691395 336.73737033 192.96846476 338.84545898 194.17871094 C352.42389025 202.17319788 362.45641922 212.17673173 367.1875 227.4375 C370.03622292 241.37926317 368.36453913 255.41419923 361.0324707 267.68579102 C355.06252491 276.58975542 346.73955159 282.00300228 337.625 287.3125 C336.39965848 288.03978351 335.17506778 288.76833326 333.95117188 289.49804688 C331.36627057 291.03599896 328.77681133 292.56581131 326.18310547 294.08886719 C322.18866297 296.43448573 318.2045679 298.79724876 314.22265625 301.1640625 C312.88682017 301.95787877 311.550964 302.75166124 310.21508789 303.54541016 C309.55187531 303.93948059 308.88866272 304.33355103 308.20535278 304.73956299 C306.17612076 305.9442555 304.14571918 307.14695388 302.11499023 308.34912109 C293.43734512 313.488459 284.79845324 318.6872788 276.1875 323.9375 C265.55421155 330.42076787 254.8638327 336.80227342 244.14648438 343.14550781 C234.79065969 348.68455071 225.47059988 354.27746139 216.1875 359.9375 C205.55421155 366.42076787 194.8638327 372.80227342 184.14648438 379.14550781 C174.79065969 384.68455071 165.47059988 390.27746139 156.1875 395.9375 C145.55421155 402.42076787 134.8638327 408.80227342 124.14648438 415.14550781 C114.79065673 420.68455246 105.47071469 426.27764642 96.1875 431.9375 C84.82498283 438.8627142 73.40215051 445.68138691 61.95117188 452.45922852 C55.58350004 456.22911788 49.22227272 460.00834956 42.88671875 463.83203125 C42.02564262 464.35123138 42.02564262 464.35123138 41.14717102 464.88092041 C38.47961772 466.48983184 35.8140451 468.10186597 33.15161133 469.71923828 C22.44815533 476.1823622 13.53038054 480.85178958 0.8125 480.75 C0.06790527 480.74436035 -0.67668945 480.7387207 -1.44384766 480.73291016 C-14.08059509 480.45514922 -25.71189119 475.10353895 -34.96875 466.47265625 C-45.863238 454.44717267 -48.41552095 441.56377352 -48.32043457 425.85131836 C-48.32504969 424.1832395 -48.3314067 422.51516471 -48.33934355 420.84709835 C-48.35597609 416.28684025 -48.34781827 411.72691882 -48.33539867 407.16665983 C-48.32632555 402.23951199 -48.34032912 397.31242089 -48.35131836 392.38528442 C-48.36908403 382.7422999 -48.36527228 373.09944007 -48.3536678 363.4564507 C-48.34462607 355.61783785 -48.34341268 347.77925988 -48.34776306 339.94064331 C-48.34837599 338.82406371 -48.34898893 337.70748411 -48.34962043 336.55706877 C-48.35089936 334.28860067 -48.35219622 332.02013259 -48.3535108 329.75166452 C-48.36491088 308.4913657 -48.35181185 287.23113593 -48.33030933 265.97084844 C-48.31243889 247.737367 -48.31554315 229.50398742 -48.33398438 211.27050781 C-48.35540117 190.08512603 -48.3638123 168.89980474 -48.35153532 147.71441364 C-48.35026115 145.45439467 -48.34900367 143.19437568 -48.34776306 140.93435669 C-48.34683741 139.26649491 -48.34683741 139.26649491 -48.34589306 137.56493896 C-48.34244259 129.73776637 -48.34826197 121.91063221 -48.35768127 114.08346558 C-48.3689116 104.54185295 -48.3658394 95.00037192 -48.3445583 85.45877433 C-48.33406187 80.5925712 -48.3299021 75.72658729 -48.34315491 70.86038589 C-48.35511373 66.40181042 -48.34845893 61.94365646 -48.3272447 57.48511899 C-48.32279339 55.87624943 -48.32501167 54.26734394 -48.33474785 52.65849769 C-48.42024791 37.35039168 -44.72375952 24.60988501 -34.125 13.1875 C-24.73561328 4.31775491 -12.76595265 -0.10979318 0 0 Z M-8.8125 35.4375 C-11.91162041 38.07504928 -13.52585878 39.57757635 -14.8125 43.4375 C-14.90900126 45.60342441 -14.94346778 47.77226364 -14.94672108 49.94033432 C-14.94907331 50.60691791 -14.95142554 51.2735015 -14.95384905 51.96028459 C-14.96054375 54.20984703 -14.96008068 56.45935177 -14.95967102 58.70892334 C-14.96296935 60.3316959 -14.96669485 61.95446764 -14.9708125 63.57723832 C-14.98084406 68.0491673 -14.98455114 72.52108285 -14.98720181 76.99302149 C-14.99110139 81.81114938 -15.00067992 86.6292666 -15.00941467 91.4473877 C-15.02918807 103.08883516 -15.03924605 114.7302835 -15.04814246 126.37174356 C-15.05252362 131.85092054 -15.05789084 137.33009655 -15.06313133 142.80927277 C-15.0801439 161.0178037 -15.09463902 179.22633402 -15.10188007 197.43487167 C-15.10379003 202.16133373 -15.10571036 206.88779578 -15.10766602 211.61425781 C-15.10814976 212.78902736 -15.1086335 213.9637969 -15.1091319 215.17416552 C-15.11743576 234.21319631 -15.14277858 253.25216434 -15.17524669 272.29116771 C-15.20829294 291.82808215 -15.2263266 311.36496466 -15.22952431 330.90190721 C-15.23169158 341.87527498 -15.24047202 352.84855121 -15.26598549 363.82189178 C-15.28765918 373.16543425 -15.29575931 382.50886294 -15.28601871 391.85242769 C-15.28146444 396.62088213 -15.28342558 401.38910167 -15.30278015 406.15752411 C-15.32034417 410.52243603 -15.31946935 414.88694052 -15.30388286 419.25185636 C-15.30149648 420.83129351 -15.3058835 422.41075838 -15.31771151 423.99015304 C-15.57602133 434.92180406 -15.57602133 434.92180406 -10.8125 444.4375 C-9.05587257 446.08223435 -9.05587257 446.08223435 -7.0625 446.9375 C-6.44890625 447.2571875 -5.8353125 447.576875 -5.203125 447.90625 C1.19786472 449.32869216 6.53080973 447.20428851 11.9375 443.9375 C12.93716797 443.35524658 12.93716797 443.35524658 13.95703125 442.76123047 C16.37917088 441.339238 18.78419363 439.89109831 21.1875 438.4375 C22.16267578 437.8487207 23.13785156 437.25994141 24.14257812 436.65332031 C28.69748818 433.89831187 33.24829859 431.13674033 37.79199219 428.36328125 C46.8822558 422.81680739 56.022539 417.35951259 65.1875 411.9375 C75.22477183 405.9974974 85.22930436 400.00915414 95.1875 393.9375 C105.82078845 387.45423213 116.5111673 381.07272658 127.22851562 374.72949219 C136.58434031 369.19044929 145.90440012 363.59753861 155.1875 357.9375 C165.82078845 351.45423213 176.5111673 345.07272658 187.22851562 338.72949219 C196.58434031 333.19044929 205.90440012 327.59753861 215.1875 321.9375 C225.82078845 315.45423213 236.5111673 309.07272658 247.22851562 302.72949219 C257.72111891 296.5174284 268.16117437 290.22511057 278.56982422 283.87353516 C284.91911676 280.00397849 291.29229294 276.17851613 297.6953125 272.3984375 C298.4141864 271.97367126 299.1330603 271.54890503 299.87371826 271.11126709 C303.36435517 269.04964926 306.85767091 266.99280347 310.35546875 264.94335938 C325.86590637 257.17360549 325.86590637 257.17360549 335.7421875 244.33984375 C336.58600467 239.18222655 336.30320163 235.81895542 333.1875 231.4375 C327.66435141 226.13774236 321.4976847 222.47901517 314.86972046 218.69342041 C311.61495265 216.83353791 308.37474094 214.94854992 305.1328125 213.06640625 C304.46712753 212.68067444 303.80144257 212.29494263 303.11558533 211.89752197 C296.47878097 208.04400095 289.92326605 204.0644533 283.375 200.0625 C273.35625158 193.94569123 263.28966445 187.91550774 253.1875 181.9375 C242.57606002 175.65726973 232.00650445 169.314573 221.47851562 162.89550781 C212.08907441 157.17298064 202.65011639 151.53810119 193.1875 145.9375 C182.57619902 139.65703143 172.00650773 133.314575 161.47851562 126.89550781 C152.08907441 121.17298064 142.65011639 115.53810119 133.1875 109.9375 C122.57619902 103.65703143 112.00650773 97.314575 101.47851562 90.89550781 C91.41728852 84.76355127 81.29634045 78.73652013 71.15655518 72.73553467 C62.1784003 67.42050811 53.23005462 62.06055643 44.31970215 56.63259888 C40.35785643 54.21991878 36.39185168 51.81407479 32.42675781 49.40673828 C30.27353342 48.09773105 28.12182878 46.78622052 25.97167969 45.47216797 C22.96622058 43.63809848 19.95300034 41.81749868 16.9375 40 C16.06270996 39.46197754 15.18791992 38.92395508 14.28662109 38.36962891 C6.45681132 33.68157061 -0.3468391 30.53537585 -8.8125 35.4375 Z " fill="#000000" transform="translate(95.8125,15.5625)"/>
</svg>
