<?xml version="1.0" encoding="UTF-8"?>
<svg version="1.1" xmlns="http://www.w3.org/2000/svg"  width="512" height="512">
<path d="M0 0 C5.79263276 3.35425552 9.52223187 8.15857429 11.6875 14.4375 C11.94049966 17.04984027 11.94049966 17.04984027 11.94476891 19.90301228 C11.9512178 20.99485335 11.95766669 22.08669442 11.964311 23.21162158 C11.9596652 25.00255364 11.9596652 25.00255364 11.95492554 26.82966614 C11.95945665 28.10236207 11.96398776 29.37505801 11.96865618 30.68632048 C11.98089052 34.21689595 11.98062522 37.74737669 11.97826743 41.27796853 C11.97785937 45.08653672 11.98889737 48.89507451 11.99838257 52.70362854 C12.01499597 60.16463928 12.02049227 67.62561843 12.02160732 75.08664612 C12.02255765 81.15149004 12.02666717 87.21632354 12.03300858 93.28116417 C12.05062201 110.47641228 12.0598473 127.67163542 12.05834763 144.86689261 C12.05826772 145.79390643 12.0581878 146.72092025 12.05810547 147.67602539 C12.05802371 148.60417121 12.05794195 149.53231703 12.05785771 150.48858847 C12.05704481 165.53051617 12.07618323 180.57234374 12.1043822 195.61424247 C12.13310876 211.05945603 12.14692262 226.50462075 12.14519465 241.94986171 C12.14453066 250.62107012 12.15002673 259.29217357 12.17155075 267.96335793 C12.18975957 275.34629517 12.19411239 282.72907986 12.1805319 290.11202983 C12.17400065 293.87813303 12.17389041 297.64394354 12.1912384 301.41001892 C12.20986181 305.49502856 12.19741882 309.57936019 12.18197632 313.66438293 C12.19226344 314.85164547 12.20255057 316.03890801 12.21314943 317.2621482 C12.148393 325.00442891 11.15104934 330.51214408 5.87109375 336.49609375 C5.29488281 336.95113281 4.71867187 337.40617187 4.125 337.875 C3.54621094 338.34808594 2.96742188 338.82117188 2.37109375 339.30859375 C-2.63409545 342.66474149 -9.2591725 342.52614159 -15.06005859 341.90429688 C-22.11716851 340.44177854 -28.37525971 335.93464749 -34.42675781 332.20898438 C-37.49109539 330.32786479 -40.58105434 328.49591288 -43.6796875 326.671875 C-47.6691206 324.32220232 -51.65376431 321.9651234 -55.62992859 319.59310913 C-62.88268111 315.26760614 -70.17916707 311.02197894 -77.5 306.8125 C-88.80762508 300.30959565 -100.08273205 293.75295127 -111.34472656 287.17138672 C-116.33240957 284.2573916 -121.32258705 281.34767432 -126.3125 278.4375 C-128.3125118 277.27085357 -130.31251181 276.10418691 -132.3125 274.9375 C-133.3025 274.36 -134.2925 273.7825 -135.3125 273.1875 C-162.3125 257.4375 -189.3125 241.6875 -216.3125 225.9375 C-217.30282227 225.35983887 -218.29314453 224.78217773 -219.31347656 224.18701172 C-221.31031585 223.02213462 -223.30706089 221.85709596 -225.30371094 220.69189453 C-230.3513033 217.74650499 -235.4005823 214.80407819 -240.453125 211.8671875 C-245.4508265 208.96190796 -250.44007651 206.04245222 -255.42724609 203.11914062 C-258.28282824 201.45479388 -261.15006318 199.81213772 -264.01953125 198.171875 C-265.80498529 197.13592974 -267.5901556 196.09949526 -269.375 195.0625 C-270.17776367 194.61116699 -270.98052734 194.15983398 -271.80761719 193.69482422 C-278.19175995 189.9500957 -283.19743103 185.38134408 -286.7265625 178.80078125 C-288.22967435 172.73823011 -288.36466613 165.90689849 -285.8125 160.125 C-280.6267395 151.7507681 -271.87128056 147.16024847 -263.5 142.5 C-261.16967938 141.17992633 -258.84030349 139.85827995 -256.51171875 138.53515625 C-255.91652435 138.19819733 -255.32132996 137.8612384 -254.70809937 137.5140686 C-248.35591641 133.91220044 -242.0838769 130.17794468 -235.8125 126.4375 C-225.87819262 120.52695271 -215.89596939 114.70669765 -205.87548828 108.94360352 C-195.65138664 103.06331237 -185.46332226 97.12241014 -175.28027344 91.17138672 C-170.29259043 88.2573916 -165.30241295 85.34767432 -160.3125 82.4375 C-158.3124882 81.27085357 -156.31248819 80.10418691 -154.3125 78.9375 C-70.3125 29.9375 -70.3125 29.9375 -67.30908203 28.18554688 C-65.32042798 27.02547167 -63.33182077 25.86531616 -61.34326172 24.70507812 C-56.17006113 21.68688267 -50.99591597 18.67032341 -45.8203125 15.65625 C-44.75167969 15.03363281 -43.68304688 14.41101563 -42.58203125 13.76953125 C-40.55629486 12.58931961 -38.53027509 11.40959416 -36.50390625 10.23046875 C-31.10132498 7.08209385 -25.73142463 3.88987805 -20.40185547 0.61914062 C-14.3456706 -2.80595108 -6.31461921 -2.85254999 0 0 Z M-36.88671875 61.04296875 C-37.85246826 61.60733643 -38.81821777 62.1717041 -39.81323242 62.75317383 C-40.86486572 63.37087646 -41.91649902 63.9885791 -43 64.625 C-44.08708252 65.26139404 -45.17416504 65.89778809 -46.29418945 66.5534668 C-54.09681275 71.12534737 -61.88495991 75.72162279 -69.66674805 80.32885742 C-77.36911449 84.88712185 -85.08926612 89.4147319 -92.8125 93.9375 C-102.19804649 99.43399024 -111.57337492 104.9471542 -120.93237305 110.48876953 C-126.0267872 113.5028909 -131.12855524 116.50410079 -136.23828125 119.4921875 C-136.83906998 119.84356781 -137.4398587 120.19494812 -138.05885315 120.55697632 C-138.66615768 120.91216339 -139.27346222 121.26735046 -139.89916992 121.63330078 C-141.14112387 122.35968242 -142.38306718 123.08608225 -143.625 123.8125 C-144.24098053 124.17277283 -144.85696106 124.53304565 -145.49160767 124.90423584 C-154.02924851 129.9001143 -162.52939166 134.95347923 -171 140.0625 C-181.69953637 146.51348893 -192.49543633 152.78309317 -203.33203125 159 C-204.30736816 159.56203125 -205.28270508 160.1240625 -206.28759766 160.703125 C-208.43212888 161.93272547 -210.58358749 163.15027965 -212.73974609 164.359375 C-213.84012207 164.98328125 -214.94049805 165.6071875 -216.07421875 166.25 C-217.57988403 167.09498047 -217.57988403 167.09498047 -219.1159668 167.95703125 C-220.20325073 168.68986328 -220.20325073 168.68986328 -221.3125 169.4375 C-221.3125 170.0975 -221.3125 170.7575 -221.3125 171.4375 C-220.41273438 171.93636719 -219.51296875 172.43523437 -218.5859375 172.94921875 C-209.76511751 177.8633246 -201.04154008 182.92662627 -192.3581543 188.0793457 C-187.02637026 191.2428197 -181.68799729 194.39438 -176.3359375 197.5234375 C-175.73835632 197.87284393 -175.14077515 198.22225037 -174.52508545 198.58224487 C-173.30148254 199.29762376 -172.07786999 200.01298618 -170.85424805 200.72833252 C-161.07432486 206.44659373 -151.32617458 212.21114456 -141.625 218.0625 C-132.16650641 223.76633348 -122.62740572 229.31529236 -113.04663086 234.81079102 C-104.49138243 239.72927342 -96.0231327 244.78197398 -87.57299805 249.87841797 C-79.48162423 254.75273954 -71.33944546 259.53399283 -63.17114258 264.27807617 C-55.08396587 268.97682736 -47.03244682 273.73406815 -39.0012207 278.52783203 C-38.13585693 279.04200684 -37.27049316 279.55618164 -36.37890625 280.0859375 C-35.61521729 280.54145996 -34.85152832 280.99698242 -34.06469727 281.46630859 C-32.5006192 282.51829731 -32.5006192 282.51829731 -31.3125 282.4375 C-31.3125 208.5175 -31.3125 134.5975 -31.3125 58.4375 C-33.31316315 58.4375 -35.22445264 60.06946027 -36.88671875 61.04296875 Z " fill="#000000" transform="translate(436.3125,85.5625)"/>
<path d="M0 0 C4.95797746 3.15407049 7.86239507 7.64489376 9.75 13.11328125 C10.001849 15.71920949 10.001849 15.71920949 10.00447559 18.56317616 C10.01030779 19.65153383 10.01613998 20.73989151 10.02214891 21.86122972 C10.01836958 23.05129347 10.01459026 24.24135723 10.01069641 25.46748352 C10.01643473 27.37040209 10.01643473 27.37040209 10.02228898 29.31176347 C10.03258256 32.83094235 10.0303837 36.35001951 10.02610838 39.86920679 C10.02364359 43.66550129 10.03265232 47.46177114 10.04014587 51.25805664 C10.05290232 58.69500803 10.05468534 66.13192333 10.05234561 73.56888381 C10.05056314 79.61418111 10.05231057 85.65946743 10.05657005 91.70476341 C10.05746284 92.99498858 10.05746284 92.99498858 10.05837366 94.31127891 C10.0595854 96.05865239 10.06079954 97.80602587 10.06201603 99.55339935 C10.07289547 115.94495975 10.07072732 132.33649959 10.06463119 148.72806116 C10.05946315 163.72147283 10.07071375 178.7148195 10.08972941 193.70821831 C10.10910529 209.10371034 10.11736415 224.49917161 10.11360615 239.89467591 C10.11169354 248.53791739 10.11418743 257.18110356 10.12832069 265.8243351 C10.14023237 273.18346653 10.14164188 280.54250863 10.12953053 287.90164129 C10.12363998 291.65554414 10.12254713 295.40928359 10.13453293 299.16317558 C10.14738244 303.23495603 10.1369313 307.30634725 10.1242218 311.37812805 C10.13159609 312.56149964 10.13897037 313.74487123 10.14656812 314.96410257 C10.09990466 322.06204061 9.73831326 328.36522732 5.13671875 334.13671875 C-2.19477165 339.96820307 -8.94765353 341.08023569 -18.25 340.11328125 C-24.4673356 338.38278951 -28.70053725 334.40677067 -32.25 329.11328125 C-33.26248355 326.07583059 -33.37823162 324.037534 -33.38422108 320.85983658 C-33.38867892 319.76439411 -33.39313676 318.66895165 -33.39772969 317.54031396 C-33.39754533 316.33206956 -33.39736097 315.12382515 -33.39717102 313.87896729 C-33.40084771 312.59910753 -33.4045244 311.31924778 -33.4083125 310.00060439 C-33.41833641 306.44080099 -33.42204991 302.88101445 -33.42470181 299.32119894 C-33.42860367 295.48467383 -33.43818205 291.64816209 -33.44691467 287.81164551 C-33.46668175 278.54322699 -33.4767453 269.27480738 -33.48564246 260.00637305 C-33.4900247 255.64293765 -33.49539165 251.27950347 -33.50063133 246.91606903 C-33.51764335 232.41338986 -33.53213813 217.91071145 -33.53938007 203.40802383 C-33.54129 199.64408619 -33.54321033 195.88014856 -33.54516602 192.11621094 C-33.54564976 191.18069058 -33.5461335 190.24517022 -33.5466319 189.28130075 C-33.55493446 174.12217813 -33.58027531 158.96313436 -33.61274669 143.80404618 C-33.64580392 128.24477507 -33.6638276 112.68554405 -33.66702431 97.12623763 C-33.66919058 88.3885139 -33.67795631 79.65090517 -33.70348549 70.91321564 C-33.72517419 63.47275107 -33.73325193 56.03242945 -33.72351871 48.59193686 C-33.71896874 44.79558751 -33.72090034 40.99953321 -33.74028015 37.20322418 C-33.76111108 33.08711764 -33.75094362 28.97166767 -33.73774719 24.85552979 C-33.74871644 23.65620827 -33.75968568 22.45688675 -33.77098733 21.22122216 C-33.71259282 13.69555483 -32.84370195 9.12977167 -27.72265625 3.40625 C-19.71991091 -2.86737031 -9.45533208 -4.15640639 0 0 Z " fill="#000000" transform="translate(97.25,86.88671875)"/>
</svg>
